<svg id="Layer_1" height="512" viewBox="0 0 512 512" width="512" xmlns="http://www.w3.org/2000/svg" data-name="Layer 1"><path d="m325.25 248.17v237.19h146.37v-183.18z" fill="#867af4"/><path d="m183.3 248.17v237.19h141.95v-183.28z" fill="#43a2ff"/><path d="m40.38 248.17v237.19h142.92v-183.18z" fill="#f4b37d"/><path d="m295.76 26.64 2.69 53.89-.66.03h-77.72l-.3-.01 2.34-53.91z" fill="#e75163"/><path d="m141.13 26.64 2.68 53.89-.65.03h-77.71l-.31-.01 2.34-53.91z" fill="#e75163"/><path d="m368.46 413.34h50.86v72.02h-50.86z" fill="#604af3"/><path d="m226.51 413.34h50.85v72.02h-50.85z" fill="#7ce5e9"/><path d="m83.58 413.34h50.86v72.02h-50.86z" fill="#d8ff33"/><path d="m298.45 80.53-.66.03h-77.72l-.3-.01-7.75 178.53 97 36.83.14-.37z" fill="#fb6771"/><path d="m143.81 80.53-.65.03h-77.71l-.31-.01-7.57 174.14v.01l96.71 36.72z" fill="#fb6771"/><path d="m249.769 80.56.001-.01.185.006-.185-.006 2.34-53.91h-30l-2.34 53.91.185.006.115.004z" fill="#ce4159"/><path d="m95.139 80.56.001-.01.207.007-.207-.007 2.34-53.91h-30l-2.34 53.91.207.007.103.003z" fill="#ce4159"/><path d="m220.07 80.56-.115-.004-.185-.006-7.75 178.53 30.29 11.501 7.46-190.021z" fill="#e75163"/><path d="m65.347 80.557-.207-.007-7.57 174.14v.01l30 11.391 7.57-185.531h-29.69z" fill="#e75163"/><path d="m325.25 485.36h30v-226.12l-30-11.07z" fill="#604af3"/><path d="m183.3 485.36h30v-225.797l-30-11.393z" fill="#3090fc"/><path d="m40.38 485.36h30v-225.853l-30-11.337z" fill="#dd9762"/><g fill="#284268"><path d="m273.3 372.76h-42.72a6 6 0 0 0 0 12h42.72a6 6 0 0 0 0-12z"/><path d="m87.65 384.76h42.72a6 6 0 0 0 0-12h-42.72a6 6 0 1 0 0 12z"/><path d="m372.53 384.76h42.72a6 6 0 0 0 0-12h-42.72a6 6 0 0 0 0 12z"/><path d="m273.3 352.41h-42.72a6 6 0 1 0 0 12h42.72a6 6 0 0 0 0-12z"/><path d="m87.65 364.41h42.72a6 6 0 0 0 0-12h-42.72a6 6 0 0 0 0 12z"/><path d="m372.53 364.41h42.72a6 6 0 0 0 0-12h-42.72a6 6 0 0 0 0 12z"/><path d="m273.3 332.07h-42.72a6 6 0 1 0 0 12h42.72a6 6 0 0 0 0-12z"/><path d="m87.65 344.07h42.72a6 6 0 0 0 0-12h-42.72a6 6 0 0 0 0 12z"/><path d="m372.53 344.07h42.72a6 6 0 0 0 0-12h-42.72a6 6 0 0 0 0 12z"/><path d="m61.15 302.49a6 6 0 0 0 6-6v-4.91a6 6 0 0 0 -12 0v4.91a6 6 0 0 0 6 6z"/><path d="m61.15 429.08a6 6 0 0 0 6-6v-108.37a6 6 0 0 0 -12 0v108.37a6 6 0 0 0 6 6z"/><path d="m118.29 233.59h-21.97a6 6 0 1 0 0 12h21.97a6 6 0 0 0 0-12z"/><path d="m110.4 189.61a6 6 0 0 0 -6-6h-16.16a6 6 0 0 0 0 12h16.16a6 6 0 0 0 6-6z"/><path d="m103.66 145.63h20.96a6 6 0 0 0 0-12h-20.96a6 6 0 0 0 0 12z"/><path d="m272.92 233.59h-21.98a6 6 0 0 0 0 12h21.98a6 6 0 0 0 0-12z"/><path d="m265.03 189.61a6 6 0 0 0 -6-6h-16.17a6 6 0 0 0 0 12h16.17a6 6 0 0 0 6-6z"/><path d="m258.29 145.63h20.96a6 6 0 0 0 0-12h-20.96a6 6 0 0 0 0 12z"/><path d="m473.7 296.551-146.37-54.01a6 6 0 0 0 -8.077 5.629v45.211l-4.271-1.622-13.23-265.418a6 6 0 0 0 -5.992-5.7h-73.65a6 6 0 0 0 -5.994 5.74l-4.857 111.9a5.669 5.669 0 0 0 -.095 2.183l-4.778 110.059-20.955-7.958a6 6 0 0 0 -8.131 5.609v45.579l-17.227-6.542-12.951-260.869a6 6 0 0 0 -5.992-5.7h-73.65a6 6 0 0 0 -5.994 5.74l-9.549 219.759-9.426-3.58a6 6 0 0 0 -8.131 5.609v237.19a6 6 0 0 0 6 6h431.24a6 6 0 0 0 6-6v-183.18a6 6 0 0 0 -3.92-5.629zm-400.474-263.911h62.195l2.079 41.92h-66.1zm-9.254 212.95h10.378a6 6 0 0 0 0-12h-9.857l3.822-87.96h10.325a6 6 0 0 0 0-12h-9.8l2.046-47.07h67.214l4.82 97.05h-19.6a6 6 0 0 0 0 12h20.2l4.318 86.949-84.085-31.931zm64.468 233.77h-38.86v-60.02h38.86zm48.86 0h-36.86v-66.02a6 6 0 0 0 -6-6h-50.86a6 6 0 0 0 -6 6v66.02h-31.2v-222.492l130.92 49.718zm50.555-446.72h62.2l2.093 41.92h-66.11zm-9.245 212.95h10.36a6 6 0 0 0 0-12h-9.839l3.819-87.96h10.32a6 6 0 0 0 0-12h-9.8l2.044-47.07h67.228l4.835 97.05h-19.627a6 6 0 0 0 0 12h20.226l4.557 91.5-84.532-32.1zm52.75 233.77h-38.85v-60.02h38.85zm141.96 0h-38.86v-60.02h38.86zm52.3 0h-40.3v-66.02a6 6 0 0 0 -6-6h-50.86a6 6 0 0 0 -6 6v66.02h-31.21v-58.693a6 6 0 1 0 -12 0v58.693h-35.89v-66.02a6 6 0 0 0 -6-6h-50.85a6 6 0 0 0 -6 6v66.02h-31.21v-222.492l129.95 49.351v93.781a6 6 0 0 0 12 0v-143.221l134.37 49.583z"/></g></svg>