<svg height="512" viewBox="0 0 512 512" width="512" xmlns="http://www.w3.org/2000/svg"><g><g><path d="m344 432h-112v-224l112-32z" fill="#787680"/><path d="m256 288h64v32h-64z" fill="#83d8f4"/><path d="m256 232h64v32h-64z" fill="#83d8f4"/><path d="m272 376h32v56h-32z" fill="#d8d7da"/><path d="m456 432h-112v-224l112-32z" fill="#787680"/><path d="m368 288h64v32h-64z" fill="#83d8f4"/><path d="m368 232h64v32h-64z" fill="#83d8f4"/><path d="m384 376h32v56h-32z" fill="#d8d7da"/><path d="m232 432h-112v-224l112-32z" fill="#787680"/><path d="m144 288h64v32h-64z" fill="#83d8f4"/><path d="m144 232h64v32h-64z" fill="#83d8f4"/><path d="m160 376h32v56h-32z" fill="#d8d7da"/><path d="m40 80h80v352h-80z" fill="#d8d7da"/><g fill="#ffda44"><path d="m40 112h80v24h-80z"/><path d="m40 344h80v24h-80z"/></g></g><g><path d="m320 328a8 8 0 0 0 8-8v-32a8 8 0 0 0 -8-8h-64a8 8 0 0 0 -8 8v32a8 8 0 0 0 8 8zm-56-32h48v16h-48z"/><path d="m256 272h64a8 8 0 0 0 8-8v-32a8 8 0 0 0 -8-8h-64a8 8 0 0 0 -8 8v32a8 8 0 0 0 8 8zm8-32h48v16h-48z"/><path d="m432 280h-64a8 8 0 0 0 -8 8v32a8 8 0 0 0 8 8h64a8 8 0 0 0 8-8v-32a8 8 0 0 0 -8-8zm-8 32h-48v-16h48z"/><path d="m432 224h-64a8 8 0 0 0 -8 8v32a8 8 0 0 0 8 8h64a8 8 0 0 0 8-8v-32a8 8 0 0 0 -8-8zm-8 32h-48v-16h48z"/><path d="m208 328a8 8 0 0 0 8-8v-32a8 8 0 0 0 -8-8h-64a8 8 0 0 0 -8 8v32a8 8 0 0 0 8 8zm-56-32h48v16h-48z"/><path d="m144 272h64a8 8 0 0 0 8-8v-32a8 8 0 0 0 -8-8h-64a8 8 0 0 0 -8 8v32a8 8 0 0 0 8 8zm8-32h48v16h-48z"/><path d="m464 424v-248a7.992 7.992 0 0 0 -10.2-7.69l-101.8 29.08v-21.39a7.992 7.992 0 0 0 -10.2-7.69l-101.8 29.08v-21.39a7.992 7.992 0 0 0 -10.2-7.69l-101.8 29.08v-117.39a8 8 0 0 0 -8-8h-80a8 8 0 0 0 -8 8v344h-16a8 8 0 0 0 0 16h448a8 8 0 0 0 0-16zm-352 0h-64v-48h64zm0-64h-64v-8h64zm0-24h-64v-192h64zm0-208h-64v-8h64zm0-24h-64v-16h64zm72 320h-16v-40h16zm40 0h-24v-48a8 8 0 0 0 -8-8h-32a8 8 0 0 0 -8 8v48h-24v-209.97l96-27.42zm72 0h-16v-40h16zm40 0h-24v-48a8 8 0 0 0 -8-8h-32a8 8 0 0 0 -8 8v48h-24v-209.97l96-27.42zm72 0h-16v-40h16zm40 0h-24v-48a8 8 0 0 0 -8-8h-32a8 8 0 0 0 -8 8v48h-24v-209.97l96-27.42z"/><path d="m496 424h-8a8 8 0 0 0 0 16h8a8 8 0 0 0 0-16z"/></g></g></svg>